HIERARCHY
ROOT Hips
{
	OFFSET 0.000000 0.000000 0.000000
	CHANNELS 6 Xposition Yposition Zposition Xrotation Yrotation Zrotation
	JOINT LeftUpLeg_virtual
	{
		OFFSET 0.000000 0.000000 0.000000
		CHANNELS 3 Xrotation Yrotation Zrotation
		JOINT LeftUpLeg
		{
			OFFSET 11.394100 -6.187798 -0.413800
			CHANNELS 3 Xrotation Yrotation Zrotation
			JOINT LeftLeg
			{
				OFFSET 0.430247 -32.302673 3.732800
				CHANNELS 3 Xrotation Yrotation Zrotation
				JOINT LeftFoot
				{
					OFFSET -0.430247 -48.264931 -6.423300
					CHANNELS 3 Xrotation Yrotation Zrotation
					JOINT LeftToeBase
					{
						OFFSET 4.230900 -16.068199 23.438400
						CHANNELS 3 Xrotation Yrotation Zrotation
						JOINT LeftToe_End
						{
							OFFSET 4.510700 0.695400 19.974600
							CHANNELS 3 Xrotation Yrotation Zrotation
							End Site
							{
								OFFSET 0 0 0
							}
						}
					}
				}
			}
		}
	}
	JOINT RightUpLeg_virtual
	{
		OFFSET 0.000000 0.000000 0.000000
		CHANNELS 3 Xrotation Yrotation Zrotation
		JOINT RightUpLeg
		{
			OFFSET -11.333700 -6.187798 -0.413800
			CHANNELS 3 Xrotation Yrotation Zrotation
			JOINT RightLeg
			{
				OFFSET -0.430392 -32.302628 3.733000
				CHANNELS 3 Xrotation Yrotation Zrotation
				JOINT RightFoot
				{
					OFFSET 0.430392 -48.264973 -6.423500
					CHANNELS 3 Xrotation Yrotation Zrotation
					JOINT RightToeBase
					{
						OFFSET -4.230900 -16.068199 23.438400
						CHANNELS 3 Xrotation Yrotation Zrotation
						JOINT RightToe_End
						{
							OFFSET -4.510700 0.695400 19.974600
							CHANNELS 3 Xrotation Yrotation Zrotation
							End Site
							{
								OFFSET 0 0 0
							}
						}
					}
				}
			}
		}
	}
	JOINT Spine_virtual
	{
		OFFSET 0.000000 0.000000 0.000000
		CHANNELS 3 Xrotation Yrotation Zrotation
		JOINT Spine
		{
			OFFSET -0.002400 12.777504 0.315300
			CHANNELS 3 Xrotation Yrotation Zrotation
			JOINT Spine1
			{
				OFFSET -0.002067 5.816869 0.032633
				CHANNELS 3 Xrotation Yrotation Zrotation
				JOINT Spine1_split
				{
					OFFSET -0.002067 5.816869 0.032633
					CHANNELS 3 Xrotation Yrotation Zrotation
					JOINT Spine2
					{
						OFFSET -0.002067 5.816869 0.032633
						CHANNELS 3 Xrotation Yrotation Zrotation
						JOINT Neck_virtual
						{
							OFFSET 0.000000 0.000000 0.000000
							CHANNELS 3 Xrotation Yrotation Zrotation
							JOINT Neck
							{
								OFFSET -0.003700 21.199493 -0.826900
								CHANNELS 3 Xrotation Yrotation Zrotation
								JOINT Head
								{
									OFFSET 0.000000 20.442200 4.834800
									CHANNELS 3 Xrotation Yrotation Zrotation
									JOINT HeadTop_End
									{
										OFFSET 0.000000 34.668396 4.968400
										CHANNELS 3 Xrotation Yrotation Zrotation
										End Site
										{
											OFFSET 0 0 0
										}
									}
								}
							}
						}
						JOINT LeftShoulder_virtual
						{
							OFFSET 0.000000 0.000000 0.000000
							CHANNELS 3 Xrotation Yrotation Zrotation
							JOINT LeftShoulder
							{
								OFFSET 3.288150 8.794197 -1.372250
								CHANNELS 3 Xrotation Yrotation Zrotation
								JOINT LeftShoulder_split
								{
									OFFSET 3.288150 8.794197 -1.372250
									CHANNELS 3 Xrotation Yrotation Zrotation
									JOINT LeftArm
									{
										OFFSET 11.953299 -2.279007 -0.146200
										CHANNELS 3 Xrotation Yrotation Zrotation
										JOINT LeftForeArm
										{
											OFFSET 18.448900 0.000000 0.000000
											CHANNELS 3 Xrotation Yrotation Zrotation
											JOINT LeftHand
											{
												OFFSET 29.527798 0.000000 0.000000
												CHANNELS 3 Xrotation Yrotation Zrotation
												End Site
												{
													OFFSET 0 0 0
												}
											}
										}
									}
								}
							}
						}
						JOINT RightShoulder_virtual
						{
							OFFSET 0.000000 0.000000 0.000000
							CHANNELS 3 Xrotation Yrotation Zrotation
							JOINT RightShoulder
							{
								OFFSET -3.249400 8.794197 -1.372250
								CHANNELS 3 Xrotation Yrotation Zrotation
								JOINT RightShoulder_split
								{
									OFFSET -3.249400 8.794197 -1.372250
									CHANNELS 3 Xrotation Yrotation Zrotation
									JOINT RightArm
									{
										OFFSET -11.953299 -2.279007 -0.146200
										CHANNELS 3 Xrotation Yrotation Zrotation
										JOINT RightForeArm
										{
											OFFSET -18.448900 0.000000 0.000000
											CHANNELS 3 Xrotation Yrotation Zrotation
											JOINT RightHand
											{
												OFFSET -29.527802 0.000000 0.000000
												CHANNELS 3 Xrotation Yrotation Zrotation
												End Site
												{
													OFFSET 0 0 0
												}
											}
										}
									}
								}
							}
						}
					}
				}
			}
		}
	}
}
MOTION
Frames: 5
Frame Time: 0.03333333
0.960822 87.003174 -0.869385 0.000000 0.000000 0.000000 -4.610282 -62.603123 -3.907617 -38.567671 9.368706 27.742529 41.829906 -7.233233 -5.642261 -3.588476 -2.992365 -5.675963 0.097659 0.893619 0.616891 0.000000 0.000000 0.000000 -5.271643 -61.271107 -3.989456 -33.782484 -10.123525 -19.549233 42.808965 4.291352 -7.506417 -10.142117 3.325052 19.826349 2.198320 -1.819155 -1.992463 0.000000 0.000000 0.000000 -4.717894 -60.417210 -3.628061 10.149044 1.958283 -0.797454 7.619431 0.366309 -5.120646 0.501012 -1.795809 1.071724 0.000000 0.000000 0.000000 7.874931 0.745011 -4.919502 -25.517167 23.208293 11.434381 -3.535855 26.313000 -3.094856 0.000000 0.000000 0.000000 8.944141 0.460695 -4.639480 -5.694596 -9.974563 -1.541848 -2.209632 -1.338446 -2.278876 -18.016314 3.588777 -34.967109 4.905569 -49.433190 2.782490 0.000000 0.000000 0.000000 8.448565 0.419327 -4.939080 -4.092192 11.913949 2.031036 1.708221 0.881313 0.836071 -38.865788 -25.059365 32.298216 -157.097889 65.091949 157.600564 0.000000 0.000000 0.000000 
0.890834 86.952675 -0.944798 0.000000 0.000000 0.000000 -4.218940 -62.490917 -3.190659 -38.214072 9.011557 27.179626 41.402377 -6.927193 -5.738072 -3.472114 -2.797579 -5.860442 0.389469 0.887982 0.500600 0.000000 0.000000 0.000000 -4.876803 -61.411112 -3.256953 -34.181286 -9.846373 -20.078567 42.725456 4.481635 -7.480757 -10.396467 3.648464 19.957224 2.156673 -1.748555 -1.954471 0.000000 0.000000 0.000000 -3.840529 -60.176562 -2.681249 9.984109 2.007898 -0.583880 8.104974 0.468137 -4.997238 0.469973 -1.732825 1.140434 0.000000 0.000000 0.000000 8.211426 0.876287 -4.850215 -23.528146 23.298419 11.820578 -2.754344 25.761723 -2.879222 0.000000 0.000000 0.000000 9.332653 0.509826 -4.539543 -5.821578 -10.561575 -2.278155 -2.077875 -1.127884 -2.309878 -16.521635 4.897715 -34.967867 5.271808 -49.801150 2.835854 0.000000 0.000000 0.000000 8.810655 0.535787 -4.745754 -4.160197 12.022099 2.692720 1.306079 0.760790 0.741664 -39.560760 -24.621374 30.928842 -157.307863 64.297686 158.068718 0.000000 0.000000 0.000000 
0.803835 87.138756 -0.997566 0.000000 0.000000 0.000000 -3.534405 -62.422417 -2.179222 -37.789637 8.653419 26.442751 40.693116 -6.660052 -5.691814 -3.189111 -2.690252 -6.217436 0.584197 0.880592 0.400498 0.000000 0.000000 0.000000 -4.331066 -61.488034 -2.342741 -34.454643 -9.734828 -20.533944 42.385992 4.503635 -7.351401 -10.438395 3.811273 20.020492 1.983297 -1.710939 -1.958280 0.000000 0.000000 0.000000 -2.913225 -59.890445 -1.660678 9.867271 2.004307 -0.486072 8.519847 0.533311 -4.875810 0.502446 -1.944070 1.184121 0.000000 0.000000 0.000000 8.575968 0.964398 -4.752694 -22.063731 23.419928 11.880297 -2.118343 25.007781 -2.871933 0.000000 0.000000 0.000000 9.686100 0.518697 -4.400248 -5.932672 -11.019046 -2.810547 -2.096434 -0.713075 -2.368245 -15.264964 5.648726 -35.067349 5.760453 -48.960425 3.017970 0.000000 0.000000 0.000000 9.061111 0.604485 -4.546625 -4.218411 11.722948 3.229963 0.779599 0.636172 0.845194 -40.083399 -23.440470 30.251365 -156.819122 64.345689 157.716035 0.000000 0.000000 0.000000 
0.731058 87.399254 -1.026337 0.000000 0.000000 0.000000 -2.842815 -62.332402 -1.180041 -37.475100 8.302768 25.676546 40.083539 -6.471808 -5.511627 -2.902607 -2.674259 -6.699497 0.547215 0.877025 0.371879 0.000000 0.000000 0.000000 -3.784619 -61.524657 -1.451957 -34.630012 -9.700661 -20.833160 42.128969 4.355621 -7.175961 -10.477812 3.775193 20.019459 1.750003 -1.710992 -1.997474 0.000000 0.000000 0.000000 -2.215134 -59.578634 -0.823217 9.858792 1.939914 -0.509412 8.856785 0.528802 -4.793323 0.619936 -2.290209 1.135424 0.000000 0.000000 0.000000 8.963236 0.978435 -4.685172 -21.226765 23.571029 11.716745 -1.581007 24.311258 -3.094600 0.000000 0.000000 0.000000 10.013782 0.457661 -4.276772 -6.007106 -11.344770 -3.118244 -2.168863 -0.223273 -2.536466 -14.541094 5.843822 -34.990496 6.066640 -47.233261 3.132421 0.000000 0.000000 0.000000 9.252009 0.584767 -4.401626 -4.256136 11.156445 3.565140 0.355052 0.531834 1.039844 -40.531961 -22.077936 30.271665 -156.513061 64.598597 157.421134 0.000000 0.000000 0.000000 
0.680300 87.586388 -1.001282 0.000000 0.000000 0.000000 -2.233859 -62.219301 -0.319722 -37.374542 7.994758 24.995689 39.830812 -6.305981 -5.278807 -2.749896 -2.716524 -7.174749 0.291275 0.888617 0.407873 0.000000 0.000000 0.000000 -3.285293 -61.448125 -0.679601 -34.699431 -9.677564 -20.997269 42.040129 4.096304 -7.013941 -10.625517 3.582215 20.021467 1.508719 -1.724323 -2.057200 0.000000 0.000000 0.000000 -1.869080 -59.317434 -0.267040 9.969370 1.821583 -0.639725 9.096625 0.447982 -4.781520 0.808664 -2.698381 1.066598 0.000000 0.000000 0.000000 9.345156 0.913898 -4.676779 -20.892210 23.734527 11.460928 -1.110034 23.822578 -3.482769 0.000000 0.000000 0.000000 10.317358 0.341699 -4.225531 -6.039427 -11.477303 -3.262619 -2.211884 0.167943 -2.672035 -14.317530 5.705397 -34.645779 5.980815 -45.203319 3.023775 0.000000 0.000000 0.000000 9.438142 0.478455 -4.368120 -4.283024 10.517607 3.691191 0.300846 0.561669 1.295978 -40.872118 -21.121542 30.926052 -156.953608 64.594554 157.748301 0.000000 0.000000 0.000000 
